%TF.GenerationSoftware,KiCad,Pcbnew,9.0.1*%
%TF.CreationDate,2025-04-24T14:02:35-07:00*%
%TF.ProjectId,Capstone_1,43617073-746f-46e6-955f-312e6b696361,rev?*%
%TF.SameCoordinates,Original*%
%TF.FileFunction,Paste,Top*%
%TF.FilePolarity,Positive*%
%FSLAX46Y46*%
G04 Gerber Fmt 4.6, Leading zero omitted, Abs format (unit mm)*
G04 Created by KiCad (PCBNEW 9.0.1) date 2025-04-24 14:02:35*
%MOMM*%
%LPD*%
G01*
G04 APERTURE LIST*
G04 Aperture macros list*
%AMRoundRect*
0 Rectangle with rounded corners*
0 $1 Rounding radius*
0 $2 $3 $4 $5 $6 $7 $8 $9 X,Y pos of 4 corners*
0 Add a 4 corners polygon primitive as box body*
4,1,4,$2,$3,$4,$5,$6,$7,$8,$9,$2,$3,0*
0 Add four circle primitives for the rounded corners*
1,1,$1+$1,$2,$3*
1,1,$1+$1,$4,$5*
1,1,$1+$1,$6,$7*
1,1,$1+$1,$8,$9*
0 Add four rect primitives between the rounded corners*
20,1,$1+$1,$2,$3,$4,$5,0*
20,1,$1+$1,$4,$5,$6,$7,0*
20,1,$1+$1,$6,$7,$8,$9,0*
20,1,$1+$1,$8,$9,$2,$3,0*%
G04 Aperture macros list end*
%ADD10RoundRect,0.190500X-0.762000X-0.444500X0.762000X-0.444500X0.762000X0.444500X-0.762000X0.444500X0*%
%ADD11R,1.600200X3.200400*%
%ADD12R,1.803400X1.092200*%
%ADD13R,1.447800X1.041400*%
%ADD14R,3.200400X1.600200*%
%ADD15R,1.498600X1.498600*%
%TA.AperFunction,Profile*%
%ADD16C,0.050000*%
%TD*%
G04 APERTURE END LIST*
D10*
%TO.C,U3*%
X256000000Y-112500000D03*
X256000000Y-118500000D03*
X256000000Y-124000000D03*
X256000000Y-130500000D03*
X256000000Y-136500000D03*
%TD*%
%TO.C,U2*%
X79500000Y-121000000D03*
X79500000Y-124000000D03*
X79500000Y-126500000D03*
X79500000Y-129000000D03*
X79500000Y-131500000D03*
%TD*%
D11*
%TO.C,U1*%
X133720000Y-127500000D03*
X136260000Y-127500000D03*
X138800000Y-127500000D03*
X141340000Y-127500000D03*
X143880000Y-127500000D03*
X146420000Y-127500000D03*
X148960000Y-127500000D03*
X151500000Y-127500000D03*
X154040000Y-127500000D03*
X156580000Y-127500000D03*
X159120000Y-127500000D03*
X161660000Y-127500000D03*
X164200000Y-127500000D03*
X166740000Y-127500000D03*
X169280000Y-127500000D03*
X171820000Y-127500000D03*
X174360000Y-127500000D03*
X176900000Y-127500000D03*
X179440000Y-127500000D03*
X181980000Y-127500000D03*
X181980000Y-108119800D03*
X179440000Y-108119800D03*
X176900000Y-108119800D03*
X174360000Y-108119800D03*
X171820000Y-108119800D03*
X169280000Y-108119800D03*
X166740000Y-108119800D03*
X164200000Y-108119800D03*
X161660000Y-108119800D03*
X159120000Y-108119800D03*
X156580000Y-108119800D03*
X154040000Y-108119800D03*
X151500000Y-108119800D03*
X148960000Y-108119800D03*
X146420000Y-108119800D03*
X143880000Y-108119800D03*
X141340000Y-108119800D03*
X138800000Y-108119800D03*
X136260000Y-108119800D03*
X133720000Y-108119800D03*
D12*
X133849540Y-120535320D03*
X133849540Y-115084480D03*
D13*
X136879760Y-120235600D03*
X136879760Y-115384200D03*
D14*
X182548960Y-120349900D03*
X182548960Y-117809900D03*
X182548960Y-115269900D03*
D15*
X136849280Y-117809900D03*
X133549820Y-116809140D03*
X133549820Y-118810660D03*
X140349400Y-120309260D03*
X142848760Y-120309260D03*
X145348120Y-120309260D03*
%TD*%
D16*
X210000000Y-95500000D02*
X268000000Y-95500000D01*
X268000000Y-152000000D01*
X210000000Y-152000000D01*
X210000000Y-95500000D01*
X53500000Y-107000000D02*
X87000000Y-107000000D01*
X87000000Y-142000000D01*
X53500000Y-142000000D01*
X53500000Y-107000000D01*
X144500000Y-65500000D02*
X173500000Y-65500000D01*
X173500000Y-93500000D01*
X144500000Y-93500000D01*
X144500000Y-65500000D01*
X50500000Y-39000000D02*
X106000000Y-39000000D01*
X106000000Y-82500000D01*
X50500000Y-82500000D01*
X50500000Y-39000000D01*
X121500000Y-99380200D02*
X197000000Y-99380200D01*
X197000000Y-159000000D01*
X121500000Y-159000000D01*
X121500000Y-99380200D01*
M02*
