%TF.GenerationSoftware,KiCad,Pcbnew,9.0.1*%
%TF.CreationDate,2025-04-24T14:02:35-07:00*%
%TF.ProjectId,Capstone_1,43617073-746f-46e6-955f-312e6b696361,rev?*%
%TF.SameCoordinates,Original*%
%TF.FileFunction,Legend,Top*%
%TF.FilePolarity,Positive*%
%FSLAX46Y46*%
G04 Gerber Fmt 4.6, Leading zero omitted, Abs format (unit mm)*
G04 Created by KiCad (PCBNEW 9.0.1) date 2025-04-24 14:02:35*
%MOMM*%
%LPD*%
G01*
G04 APERTURE LIST*
%ADD10C,0.150000*%
%ADD11C,0.100000*%
%ADD12C,0.120000*%
%ADD13C,0.152400*%
%TA.AperFunction,Profile*%
%ADD14C,0.050000*%
%TD*%
G04 APERTURE END LIST*
D10*
X131014819Y-135333333D02*
X131729104Y-135333333D01*
X131729104Y-135333333D02*
X131871961Y-135380952D01*
X131871961Y-135380952D02*
X131967200Y-135476190D01*
X131967200Y-135476190D02*
X132014819Y-135619047D01*
X132014819Y-135619047D02*
X132014819Y-135714285D01*
X131348152Y-134428571D02*
X132014819Y-134428571D01*
X130967200Y-134666666D02*
X131681485Y-134904761D01*
X131681485Y-134904761D02*
X131681485Y-134285714D01*
X130894819Y-102333333D02*
X131609104Y-102333333D01*
X131609104Y-102333333D02*
X131751961Y-102380952D01*
X131751961Y-102380952D02*
X131847200Y-102476190D01*
X131847200Y-102476190D02*
X131894819Y-102619047D01*
X131894819Y-102619047D02*
X131894819Y-102714285D01*
X130894819Y-101952380D02*
X130894819Y-101333333D01*
X130894819Y-101333333D02*
X131275771Y-101666666D01*
X131275771Y-101666666D02*
X131275771Y-101523809D01*
X131275771Y-101523809D02*
X131323390Y-101428571D01*
X131323390Y-101428571D02*
X131371009Y-101380952D01*
X131371009Y-101380952D02*
X131466247Y-101333333D01*
X131466247Y-101333333D02*
X131704342Y-101333333D01*
X131704342Y-101333333D02*
X131799580Y-101380952D01*
X131799580Y-101380952D02*
X131847200Y-101428571D01*
X131847200Y-101428571D02*
X131894819Y-101523809D01*
X131894819Y-101523809D02*
X131894819Y-101809523D01*
X131894819Y-101809523D02*
X131847200Y-101904761D01*
X131847200Y-101904761D02*
X131799580Y-101952380D01*
X217666666Y-26994819D02*
X217666666Y-27709104D01*
X217666666Y-27709104D02*
X217619047Y-27851961D01*
X217619047Y-27851961D02*
X217523809Y-27947200D01*
X217523809Y-27947200D02*
X217380952Y-27994819D01*
X217380952Y-27994819D02*
X217285714Y-27994819D01*
X218666666Y-27994819D02*
X218095238Y-27994819D01*
X218380952Y-27994819D02*
X218380952Y-26994819D01*
X218380952Y-26994819D02*
X218285714Y-27137676D01*
X218285714Y-27137676D02*
X218190476Y-27232914D01*
X218190476Y-27232914D02*
X218095238Y-27280533D01*
X185666666Y-137454819D02*
X185666666Y-138169104D01*
X185666666Y-138169104D02*
X185619047Y-138311961D01*
X185619047Y-138311961D02*
X185523809Y-138407200D01*
X185523809Y-138407200D02*
X185380952Y-138454819D01*
X185380952Y-138454819D02*
X185285714Y-138454819D01*
X186095238Y-137550057D02*
X186142857Y-137502438D01*
X186142857Y-137502438D02*
X186238095Y-137454819D01*
X186238095Y-137454819D02*
X186476190Y-137454819D01*
X186476190Y-137454819D02*
X186571428Y-137502438D01*
X186571428Y-137502438D02*
X186619047Y-137550057D01*
X186619047Y-137550057D02*
X186666666Y-137645295D01*
X186666666Y-137645295D02*
X186666666Y-137740533D01*
X186666666Y-137740533D02*
X186619047Y-137883390D01*
X186619047Y-137883390D02*
X186047619Y-138454819D01*
X186047619Y-138454819D02*
X186666666Y-138454819D01*
D11*
X232238095Y-98457419D02*
X232238095Y-99266942D01*
X232238095Y-99266942D02*
X232285714Y-99362180D01*
X232285714Y-99362180D02*
X232333333Y-99409800D01*
X232333333Y-99409800D02*
X232428571Y-99457419D01*
X232428571Y-99457419D02*
X232619047Y-99457419D01*
X232619047Y-99457419D02*
X232714285Y-99409800D01*
X232714285Y-99409800D02*
X232761904Y-99362180D01*
X232761904Y-99362180D02*
X232809523Y-99266942D01*
X232809523Y-99266942D02*
X232809523Y-98457419D01*
X233190476Y-98457419D02*
X233809523Y-98457419D01*
X233809523Y-98457419D02*
X233476190Y-98838371D01*
X233476190Y-98838371D02*
X233619047Y-98838371D01*
X233619047Y-98838371D02*
X233714285Y-98885990D01*
X233714285Y-98885990D02*
X233761904Y-98933609D01*
X233761904Y-98933609D02*
X233809523Y-99028847D01*
X233809523Y-99028847D02*
X233809523Y-99266942D01*
X233809523Y-99266942D02*
X233761904Y-99362180D01*
X233761904Y-99362180D02*
X233714285Y-99409800D01*
X233714285Y-99409800D02*
X233619047Y-99457419D01*
X233619047Y-99457419D02*
X233333333Y-99457419D01*
X233333333Y-99457419D02*
X233238095Y-99409800D01*
X233238095Y-99409800D02*
X233190476Y-99362180D01*
X67738095Y-111957419D02*
X67738095Y-112766942D01*
X67738095Y-112766942D02*
X67785714Y-112862180D01*
X67785714Y-112862180D02*
X67833333Y-112909800D01*
X67833333Y-112909800D02*
X67928571Y-112957419D01*
X67928571Y-112957419D02*
X68119047Y-112957419D01*
X68119047Y-112957419D02*
X68214285Y-112909800D01*
X68214285Y-112909800D02*
X68261904Y-112862180D01*
X68261904Y-112862180D02*
X68309523Y-112766942D01*
X68309523Y-112766942D02*
X68309523Y-111957419D01*
X68738095Y-112052657D02*
X68785714Y-112005038D01*
X68785714Y-112005038D02*
X68880952Y-111957419D01*
X68880952Y-111957419D02*
X69119047Y-111957419D01*
X69119047Y-111957419D02*
X69214285Y-112005038D01*
X69214285Y-112005038D02*
X69261904Y-112052657D01*
X69261904Y-112052657D02*
X69309523Y-112147895D01*
X69309523Y-112147895D02*
X69309523Y-112243133D01*
X69309523Y-112243133D02*
X69261904Y-112385990D01*
X69261904Y-112385990D02*
X68690476Y-112957419D01*
X68690476Y-112957419D02*
X69309523Y-112957419D01*
D10*
X80166667Y-45657200D02*
X80309524Y-45704819D01*
X80309524Y-45704819D02*
X80547619Y-45704819D01*
X80547619Y-45704819D02*
X80642857Y-45657200D01*
X80642857Y-45657200D02*
X80690476Y-45609580D01*
X80690476Y-45609580D02*
X80738095Y-45514342D01*
X80738095Y-45514342D02*
X80738095Y-45419104D01*
X80738095Y-45419104D02*
X80690476Y-45323866D01*
X80690476Y-45323866D02*
X80642857Y-45276247D01*
X80642857Y-45276247D02*
X80547619Y-45228628D01*
X80547619Y-45228628D02*
X80357143Y-45181009D01*
X80357143Y-45181009D02*
X80261905Y-45133390D01*
X80261905Y-45133390D02*
X80214286Y-45085771D01*
X80214286Y-45085771D02*
X80166667Y-44990533D01*
X80166667Y-44990533D02*
X80166667Y-44895295D01*
X80166667Y-44895295D02*
X80214286Y-44800057D01*
X80214286Y-44800057D02*
X80261905Y-44752438D01*
X80261905Y-44752438D02*
X80357143Y-44704819D01*
X80357143Y-44704819D02*
X80595238Y-44704819D01*
X80595238Y-44704819D02*
X80738095Y-44752438D01*
X81071429Y-44704819D02*
X81309524Y-45704819D01*
X81309524Y-45704819D02*
X81500000Y-44990533D01*
X81500000Y-44990533D02*
X81690476Y-45704819D01*
X81690476Y-45704819D02*
X81928572Y-44704819D01*
X82738095Y-44704819D02*
X82547619Y-44704819D01*
X82547619Y-44704819D02*
X82452381Y-44752438D01*
X82452381Y-44752438D02*
X82404762Y-44800057D01*
X82404762Y-44800057D02*
X82309524Y-44942914D01*
X82309524Y-44942914D02*
X82261905Y-45133390D01*
X82261905Y-45133390D02*
X82261905Y-45514342D01*
X82261905Y-45514342D02*
X82309524Y-45609580D01*
X82309524Y-45609580D02*
X82357143Y-45657200D01*
X82357143Y-45657200D02*
X82452381Y-45704819D01*
X82452381Y-45704819D02*
X82642857Y-45704819D01*
X82642857Y-45704819D02*
X82738095Y-45657200D01*
X82738095Y-45657200D02*
X82785714Y-45609580D01*
X82785714Y-45609580D02*
X82833333Y-45514342D01*
X82833333Y-45514342D02*
X82833333Y-45276247D01*
X82833333Y-45276247D02*
X82785714Y-45181009D01*
X82785714Y-45181009D02*
X82738095Y-45133390D01*
X82738095Y-45133390D02*
X82642857Y-45085771D01*
X82642857Y-45085771D02*
X82452381Y-45085771D01*
X82452381Y-45085771D02*
X82357143Y-45133390D01*
X82357143Y-45133390D02*
X82309524Y-45181009D01*
X82309524Y-45181009D02*
X82261905Y-45276247D01*
X165916667Y-67907200D02*
X166059524Y-67954819D01*
X166059524Y-67954819D02*
X166297619Y-67954819D01*
X166297619Y-67954819D02*
X166392857Y-67907200D01*
X166392857Y-67907200D02*
X166440476Y-67859580D01*
X166440476Y-67859580D02*
X166488095Y-67764342D01*
X166488095Y-67764342D02*
X166488095Y-67669104D01*
X166488095Y-67669104D02*
X166440476Y-67573866D01*
X166440476Y-67573866D02*
X166392857Y-67526247D01*
X166392857Y-67526247D02*
X166297619Y-67478628D01*
X166297619Y-67478628D02*
X166107143Y-67431009D01*
X166107143Y-67431009D02*
X166011905Y-67383390D01*
X166011905Y-67383390D02*
X165964286Y-67335771D01*
X165964286Y-67335771D02*
X165916667Y-67240533D01*
X165916667Y-67240533D02*
X165916667Y-67145295D01*
X165916667Y-67145295D02*
X165964286Y-67050057D01*
X165964286Y-67050057D02*
X166011905Y-67002438D01*
X166011905Y-67002438D02*
X166107143Y-66954819D01*
X166107143Y-66954819D02*
X166345238Y-66954819D01*
X166345238Y-66954819D02*
X166488095Y-67002438D01*
X166821429Y-66954819D02*
X167059524Y-67954819D01*
X167059524Y-67954819D02*
X167250000Y-67240533D01*
X167250000Y-67240533D02*
X167440476Y-67954819D01*
X167440476Y-67954819D02*
X167678572Y-66954819D01*
X168202381Y-67383390D02*
X168107143Y-67335771D01*
X168107143Y-67335771D02*
X168059524Y-67288152D01*
X168059524Y-67288152D02*
X168011905Y-67192914D01*
X168011905Y-67192914D02*
X168011905Y-67145295D01*
X168011905Y-67145295D02*
X168059524Y-67050057D01*
X168059524Y-67050057D02*
X168107143Y-67002438D01*
X168107143Y-67002438D02*
X168202381Y-66954819D01*
X168202381Y-66954819D02*
X168392857Y-66954819D01*
X168392857Y-66954819D02*
X168488095Y-67002438D01*
X168488095Y-67002438D02*
X168535714Y-67050057D01*
X168535714Y-67050057D02*
X168583333Y-67145295D01*
X168583333Y-67145295D02*
X168583333Y-67192914D01*
X168583333Y-67192914D02*
X168535714Y-67288152D01*
X168535714Y-67288152D02*
X168488095Y-67335771D01*
X168488095Y-67335771D02*
X168392857Y-67383390D01*
X168392857Y-67383390D02*
X168202381Y-67383390D01*
X168202381Y-67383390D02*
X168107143Y-67431009D01*
X168107143Y-67431009D02*
X168059524Y-67478628D01*
X168059524Y-67478628D02*
X168011905Y-67573866D01*
X168011905Y-67573866D02*
X168011905Y-67764342D01*
X168011905Y-67764342D02*
X168059524Y-67859580D01*
X168059524Y-67859580D02*
X168107143Y-67907200D01*
X168107143Y-67907200D02*
X168202381Y-67954819D01*
X168202381Y-67954819D02*
X168392857Y-67954819D01*
X168392857Y-67954819D02*
X168488095Y-67907200D01*
X168488095Y-67907200D02*
X168535714Y-67859580D01*
X168535714Y-67859580D02*
X168583333Y-67764342D01*
X168583333Y-67764342D02*
X168583333Y-67573866D01*
X168583333Y-67573866D02*
X168535714Y-67478628D01*
X168535714Y-67478628D02*
X168488095Y-67431009D01*
X168488095Y-67431009D02*
X168392857Y-67383390D01*
X79416667Y-67907200D02*
X79559524Y-67954819D01*
X79559524Y-67954819D02*
X79797619Y-67954819D01*
X79797619Y-67954819D02*
X79892857Y-67907200D01*
X79892857Y-67907200D02*
X79940476Y-67859580D01*
X79940476Y-67859580D02*
X79988095Y-67764342D01*
X79988095Y-67764342D02*
X79988095Y-67669104D01*
X79988095Y-67669104D02*
X79940476Y-67573866D01*
X79940476Y-67573866D02*
X79892857Y-67526247D01*
X79892857Y-67526247D02*
X79797619Y-67478628D01*
X79797619Y-67478628D02*
X79607143Y-67431009D01*
X79607143Y-67431009D02*
X79511905Y-67383390D01*
X79511905Y-67383390D02*
X79464286Y-67335771D01*
X79464286Y-67335771D02*
X79416667Y-67240533D01*
X79416667Y-67240533D02*
X79416667Y-67145295D01*
X79416667Y-67145295D02*
X79464286Y-67050057D01*
X79464286Y-67050057D02*
X79511905Y-67002438D01*
X79511905Y-67002438D02*
X79607143Y-66954819D01*
X79607143Y-66954819D02*
X79845238Y-66954819D01*
X79845238Y-66954819D02*
X79988095Y-67002438D01*
X80321429Y-66954819D02*
X80559524Y-67954819D01*
X80559524Y-67954819D02*
X80750000Y-67240533D01*
X80750000Y-67240533D02*
X80940476Y-67954819D01*
X80940476Y-67954819D02*
X81178572Y-66954819D01*
X82083333Y-67954819D02*
X81511905Y-67954819D01*
X81797619Y-67954819D02*
X81797619Y-66954819D01*
X81797619Y-66954819D02*
X81702381Y-67097676D01*
X81702381Y-67097676D02*
X81607143Y-67192914D01*
X81607143Y-67192914D02*
X81511905Y-67240533D01*
X93416667Y-55907200D02*
X93559524Y-55954819D01*
X93559524Y-55954819D02*
X93797619Y-55954819D01*
X93797619Y-55954819D02*
X93892857Y-55907200D01*
X93892857Y-55907200D02*
X93940476Y-55859580D01*
X93940476Y-55859580D02*
X93988095Y-55764342D01*
X93988095Y-55764342D02*
X93988095Y-55669104D01*
X93988095Y-55669104D02*
X93940476Y-55573866D01*
X93940476Y-55573866D02*
X93892857Y-55526247D01*
X93892857Y-55526247D02*
X93797619Y-55478628D01*
X93797619Y-55478628D02*
X93607143Y-55431009D01*
X93607143Y-55431009D02*
X93511905Y-55383390D01*
X93511905Y-55383390D02*
X93464286Y-55335771D01*
X93464286Y-55335771D02*
X93416667Y-55240533D01*
X93416667Y-55240533D02*
X93416667Y-55145295D01*
X93416667Y-55145295D02*
X93464286Y-55050057D01*
X93464286Y-55050057D02*
X93511905Y-55002438D01*
X93511905Y-55002438D02*
X93607143Y-54954819D01*
X93607143Y-54954819D02*
X93845238Y-54954819D01*
X93845238Y-54954819D02*
X93988095Y-55002438D01*
X94321429Y-54954819D02*
X94559524Y-55954819D01*
X94559524Y-55954819D02*
X94750000Y-55240533D01*
X94750000Y-55240533D02*
X94940476Y-55954819D01*
X94940476Y-55954819D02*
X95178572Y-54954819D01*
X95464286Y-54954819D02*
X96130952Y-54954819D01*
X96130952Y-54954819D02*
X95702381Y-55954819D01*
X152916667Y-80907200D02*
X153059524Y-80954819D01*
X153059524Y-80954819D02*
X153297619Y-80954819D01*
X153297619Y-80954819D02*
X153392857Y-80907200D01*
X153392857Y-80907200D02*
X153440476Y-80859580D01*
X153440476Y-80859580D02*
X153488095Y-80764342D01*
X153488095Y-80764342D02*
X153488095Y-80669104D01*
X153488095Y-80669104D02*
X153440476Y-80573866D01*
X153440476Y-80573866D02*
X153392857Y-80526247D01*
X153392857Y-80526247D02*
X153297619Y-80478628D01*
X153297619Y-80478628D02*
X153107143Y-80431009D01*
X153107143Y-80431009D02*
X153011905Y-80383390D01*
X153011905Y-80383390D02*
X152964286Y-80335771D01*
X152964286Y-80335771D02*
X152916667Y-80240533D01*
X152916667Y-80240533D02*
X152916667Y-80145295D01*
X152916667Y-80145295D02*
X152964286Y-80050057D01*
X152964286Y-80050057D02*
X153011905Y-80002438D01*
X153011905Y-80002438D02*
X153107143Y-79954819D01*
X153107143Y-79954819D02*
X153345238Y-79954819D01*
X153345238Y-79954819D02*
X153488095Y-80002438D01*
X153821429Y-79954819D02*
X154059524Y-80954819D01*
X154059524Y-80954819D02*
X154250000Y-80240533D01*
X154250000Y-80240533D02*
X154440476Y-80954819D01*
X154440476Y-80954819D02*
X154678572Y-79954819D01*
X154964286Y-79954819D02*
X155583333Y-79954819D01*
X155583333Y-79954819D02*
X155250000Y-80335771D01*
X155250000Y-80335771D02*
X155392857Y-80335771D01*
X155392857Y-80335771D02*
X155488095Y-80383390D01*
X155488095Y-80383390D02*
X155535714Y-80431009D01*
X155535714Y-80431009D02*
X155583333Y-80526247D01*
X155583333Y-80526247D02*
X155583333Y-80764342D01*
X155583333Y-80764342D02*
X155535714Y-80859580D01*
X155535714Y-80859580D02*
X155488095Y-80907200D01*
X155488095Y-80907200D02*
X155392857Y-80954819D01*
X155392857Y-80954819D02*
X155107143Y-80954819D01*
X155107143Y-80954819D02*
X155011905Y-80907200D01*
X155011905Y-80907200D02*
X154964286Y-80859580D01*
X152355476Y-145189900D02*
X152498333Y-145237519D01*
X152498333Y-145237519D02*
X152736428Y-145237519D01*
X152736428Y-145237519D02*
X152831666Y-145189900D01*
X152831666Y-145189900D02*
X152879285Y-145142280D01*
X152879285Y-145142280D02*
X152926904Y-145047042D01*
X152926904Y-145047042D02*
X152926904Y-144951804D01*
X152926904Y-144951804D02*
X152879285Y-144856566D01*
X152879285Y-144856566D02*
X152831666Y-144808947D01*
X152831666Y-144808947D02*
X152736428Y-144761328D01*
X152736428Y-144761328D02*
X152545952Y-144713709D01*
X152545952Y-144713709D02*
X152450714Y-144666090D01*
X152450714Y-144666090D02*
X152403095Y-144618471D01*
X152403095Y-144618471D02*
X152355476Y-144523233D01*
X152355476Y-144523233D02*
X152355476Y-144427995D01*
X152355476Y-144427995D02*
X152403095Y-144332757D01*
X152403095Y-144332757D02*
X152450714Y-144285138D01*
X152450714Y-144285138D02*
X152545952Y-144237519D01*
X152545952Y-144237519D02*
X152784047Y-144237519D01*
X152784047Y-144237519D02*
X152926904Y-144285138D01*
X153260238Y-144237519D02*
X153498333Y-145237519D01*
X153498333Y-145237519D02*
X153688809Y-144523233D01*
X153688809Y-144523233D02*
X153879285Y-145237519D01*
X153879285Y-145237519D02*
X154117381Y-144237519D01*
X155022142Y-145237519D02*
X154450714Y-145237519D01*
X154736428Y-145237519D02*
X154736428Y-144237519D01*
X154736428Y-144237519D02*
X154641190Y-144380376D01*
X154641190Y-144380376D02*
X154545952Y-144475614D01*
X154545952Y-144475614D02*
X154450714Y-144523233D01*
X155641190Y-144237519D02*
X155736428Y-144237519D01*
X155736428Y-144237519D02*
X155831666Y-144285138D01*
X155831666Y-144285138D02*
X155879285Y-144332757D01*
X155879285Y-144332757D02*
X155926904Y-144427995D01*
X155926904Y-144427995D02*
X155974523Y-144618471D01*
X155974523Y-144618471D02*
X155974523Y-144856566D01*
X155974523Y-144856566D02*
X155926904Y-145047042D01*
X155926904Y-145047042D02*
X155879285Y-145142280D01*
X155879285Y-145142280D02*
X155831666Y-145189900D01*
X155831666Y-145189900D02*
X155736428Y-145237519D01*
X155736428Y-145237519D02*
X155641190Y-145237519D01*
X155641190Y-145237519D02*
X155545952Y-145189900D01*
X155545952Y-145189900D02*
X155498333Y-145142280D01*
X155498333Y-145142280D02*
X155450714Y-145047042D01*
X155450714Y-145047042D02*
X155403095Y-144856566D01*
X155403095Y-144856566D02*
X155403095Y-144618471D01*
X155403095Y-144618471D02*
X155450714Y-144427995D01*
X155450714Y-144427995D02*
X155498333Y-144332757D01*
X155498333Y-144332757D02*
X155545952Y-144285138D01*
X155545952Y-144285138D02*
X155641190Y-144237519D01*
X157304819Y-118571804D02*
X158114342Y-118571804D01*
X158114342Y-118571804D02*
X158209580Y-118524185D01*
X158209580Y-118524185D02*
X158257200Y-118476566D01*
X158257200Y-118476566D02*
X158304819Y-118381328D01*
X158304819Y-118381328D02*
X158304819Y-118190852D01*
X158304819Y-118190852D02*
X158257200Y-118095614D01*
X158257200Y-118095614D02*
X158209580Y-118047995D01*
X158209580Y-118047995D02*
X158114342Y-118000376D01*
X158114342Y-118000376D02*
X157304819Y-118000376D01*
X158304819Y-117000376D02*
X158304819Y-117571804D01*
X158304819Y-117286090D02*
X157304819Y-117286090D01*
X157304819Y-117286090D02*
X157447676Y-117381328D01*
X157447676Y-117381328D02*
X157542914Y-117476566D01*
X157542914Y-117476566D02*
X157590533Y-117571804D01*
X137076667Y-144787400D02*
X137219524Y-144835019D01*
X137219524Y-144835019D02*
X137457619Y-144835019D01*
X137457619Y-144835019D02*
X137552857Y-144787400D01*
X137552857Y-144787400D02*
X137600476Y-144739780D01*
X137600476Y-144739780D02*
X137648095Y-144644542D01*
X137648095Y-144644542D02*
X137648095Y-144549304D01*
X137648095Y-144549304D02*
X137600476Y-144454066D01*
X137600476Y-144454066D02*
X137552857Y-144406447D01*
X137552857Y-144406447D02*
X137457619Y-144358828D01*
X137457619Y-144358828D02*
X137267143Y-144311209D01*
X137267143Y-144311209D02*
X137171905Y-144263590D01*
X137171905Y-144263590D02*
X137124286Y-144215971D01*
X137124286Y-144215971D02*
X137076667Y-144120733D01*
X137076667Y-144120733D02*
X137076667Y-144025495D01*
X137076667Y-144025495D02*
X137124286Y-143930257D01*
X137124286Y-143930257D02*
X137171905Y-143882638D01*
X137171905Y-143882638D02*
X137267143Y-143835019D01*
X137267143Y-143835019D02*
X137505238Y-143835019D01*
X137505238Y-143835019D02*
X137648095Y-143882638D01*
X137981429Y-143835019D02*
X138219524Y-144835019D01*
X138219524Y-144835019D02*
X138410000Y-144120733D01*
X138410000Y-144120733D02*
X138600476Y-144835019D01*
X138600476Y-144835019D02*
X138838572Y-143835019D01*
X139695714Y-143835019D02*
X139219524Y-143835019D01*
X139219524Y-143835019D02*
X139171905Y-144311209D01*
X139171905Y-144311209D02*
X139219524Y-144263590D01*
X139219524Y-144263590D02*
X139314762Y-144215971D01*
X139314762Y-144215971D02*
X139552857Y-144215971D01*
X139552857Y-144215971D02*
X139648095Y-144263590D01*
X139648095Y-144263590D02*
X139695714Y-144311209D01*
X139695714Y-144311209D02*
X139743333Y-144406447D01*
X139743333Y-144406447D02*
X139743333Y-144644542D01*
X139743333Y-144644542D02*
X139695714Y-144739780D01*
X139695714Y-144739780D02*
X139648095Y-144787400D01*
X139648095Y-144787400D02*
X139552857Y-144835019D01*
X139552857Y-144835019D02*
X139314762Y-144835019D01*
X139314762Y-144835019D02*
X139219524Y-144787400D01*
X139219524Y-144787400D02*
X139171905Y-144739780D01*
X65166667Y-55157200D02*
X65309524Y-55204819D01*
X65309524Y-55204819D02*
X65547619Y-55204819D01*
X65547619Y-55204819D02*
X65642857Y-55157200D01*
X65642857Y-55157200D02*
X65690476Y-55109580D01*
X65690476Y-55109580D02*
X65738095Y-55014342D01*
X65738095Y-55014342D02*
X65738095Y-54919104D01*
X65738095Y-54919104D02*
X65690476Y-54823866D01*
X65690476Y-54823866D02*
X65642857Y-54776247D01*
X65642857Y-54776247D02*
X65547619Y-54728628D01*
X65547619Y-54728628D02*
X65357143Y-54681009D01*
X65357143Y-54681009D02*
X65261905Y-54633390D01*
X65261905Y-54633390D02*
X65214286Y-54585771D01*
X65214286Y-54585771D02*
X65166667Y-54490533D01*
X65166667Y-54490533D02*
X65166667Y-54395295D01*
X65166667Y-54395295D02*
X65214286Y-54300057D01*
X65214286Y-54300057D02*
X65261905Y-54252438D01*
X65261905Y-54252438D02*
X65357143Y-54204819D01*
X65357143Y-54204819D02*
X65595238Y-54204819D01*
X65595238Y-54204819D02*
X65738095Y-54252438D01*
X66071429Y-54204819D02*
X66309524Y-55204819D01*
X66309524Y-55204819D02*
X66500000Y-54490533D01*
X66500000Y-54490533D02*
X66690476Y-55204819D01*
X66690476Y-55204819D02*
X66928572Y-54204819D01*
X67261905Y-54300057D02*
X67309524Y-54252438D01*
X67309524Y-54252438D02*
X67404762Y-54204819D01*
X67404762Y-54204819D02*
X67642857Y-54204819D01*
X67642857Y-54204819D02*
X67738095Y-54252438D01*
X67738095Y-54252438D02*
X67785714Y-54300057D01*
X67785714Y-54300057D02*
X67833333Y-54395295D01*
X67833333Y-54395295D02*
X67833333Y-54490533D01*
X67833333Y-54490533D02*
X67785714Y-54633390D01*
X67785714Y-54633390D02*
X67214286Y-55204819D01*
X67214286Y-55204819D02*
X67833333Y-55204819D01*
X168826667Y-144037400D02*
X168969524Y-144085019D01*
X168969524Y-144085019D02*
X169207619Y-144085019D01*
X169207619Y-144085019D02*
X169302857Y-144037400D01*
X169302857Y-144037400D02*
X169350476Y-143989780D01*
X169350476Y-143989780D02*
X169398095Y-143894542D01*
X169398095Y-143894542D02*
X169398095Y-143799304D01*
X169398095Y-143799304D02*
X169350476Y-143704066D01*
X169350476Y-143704066D02*
X169302857Y-143656447D01*
X169302857Y-143656447D02*
X169207619Y-143608828D01*
X169207619Y-143608828D02*
X169017143Y-143561209D01*
X169017143Y-143561209D02*
X168921905Y-143513590D01*
X168921905Y-143513590D02*
X168874286Y-143465971D01*
X168874286Y-143465971D02*
X168826667Y-143370733D01*
X168826667Y-143370733D02*
X168826667Y-143275495D01*
X168826667Y-143275495D02*
X168874286Y-143180257D01*
X168874286Y-143180257D02*
X168921905Y-143132638D01*
X168921905Y-143132638D02*
X169017143Y-143085019D01*
X169017143Y-143085019D02*
X169255238Y-143085019D01*
X169255238Y-143085019D02*
X169398095Y-143132638D01*
X169731429Y-143085019D02*
X169969524Y-144085019D01*
X169969524Y-144085019D02*
X170160000Y-143370733D01*
X170160000Y-143370733D02*
X170350476Y-144085019D01*
X170350476Y-144085019D02*
X170588572Y-143085019D01*
X171398095Y-143418352D02*
X171398095Y-144085019D01*
X171160000Y-143037400D02*
X170921905Y-143751685D01*
X170921905Y-143751685D02*
X171540952Y-143751685D01*
D12*
%TO.C,J4*%
X132560000Y-136380000D02*
X132560000Y-135000000D01*
X133940000Y-136380000D02*
X132560000Y-136380000D01*
X135210000Y-136380000D02*
X183580000Y-136380000D01*
X135210000Y-136380000D02*
X135210000Y-133620000D01*
X183580000Y-136380000D02*
X183580000Y-133620000D01*
X135210000Y-133620000D02*
X183580000Y-133620000D01*
%TO.C,J3*%
X132440000Y-103380000D02*
X132440000Y-102000000D01*
X133820000Y-103380000D02*
X132440000Y-103380000D01*
X135090000Y-103380000D02*
X183460000Y-103380000D01*
X135090000Y-103380000D02*
X135090000Y-100620000D01*
X183460000Y-103380000D02*
X183460000Y-100620000D01*
X135090000Y-100620000D02*
X183460000Y-100620000D01*
%TO.C,J1*%
X216620000Y-28540000D02*
X218000000Y-28540000D01*
X216620000Y-29920000D02*
X216620000Y-28540000D01*
X216620000Y-31190000D02*
X216620000Y-41460000D01*
X216620000Y-31190000D02*
X219380000Y-31190000D01*
X216620000Y-41460000D02*
X219380000Y-41460000D01*
X219380000Y-31190000D02*
X219380000Y-41460000D01*
%TO.C,J2*%
X184620000Y-139000000D02*
X186000000Y-139000000D01*
X184620000Y-140380000D02*
X184620000Y-139000000D01*
X184620000Y-141650000D02*
X184620000Y-157000000D01*
X184620000Y-141650000D02*
X187380000Y-141650000D01*
X184620000Y-157000000D02*
X187380000Y-157000000D01*
X187380000Y-141650000D02*
X187380000Y-157000000D01*
%TO.C,U3*%
D11*
X218500000Y-107500000D02*
X257000000Y-107500000D01*
X257000000Y-145500000D01*
X218500000Y-145500000D01*
X218500000Y-107500000D01*
%TO.C,U2*%
X61000000Y-119000000D02*
X80500000Y-119000000D01*
X80500000Y-137000000D01*
X61000000Y-137000000D01*
X61000000Y-119000000D01*
D12*
%TO.C,SW6*%
X78000000Y-48750000D02*
X78000000Y-50250000D01*
X79250000Y-52750000D02*
X83750000Y-52750000D01*
X83750000Y-46250000D02*
X79250000Y-46250000D01*
X85000000Y-50250000D02*
X85000000Y-48750000D01*
%TO.C,SW8*%
X163750000Y-71000000D02*
X163750000Y-72500000D01*
X165000000Y-75000000D02*
X169500000Y-75000000D01*
X169500000Y-68500000D02*
X165000000Y-68500000D01*
X170750000Y-72500000D02*
X170750000Y-71000000D01*
%TO.C,SW1*%
X77250000Y-71000000D02*
X77250000Y-72500000D01*
X78500000Y-75000000D02*
X83000000Y-75000000D01*
X83000000Y-68500000D02*
X78500000Y-68500000D01*
X84250000Y-72500000D02*
X84250000Y-71000000D01*
%TO.C,SW7*%
X91250000Y-59000000D02*
X91250000Y-60500000D01*
X92500000Y-63000000D02*
X97000000Y-63000000D01*
X97000000Y-56500000D02*
X92500000Y-56500000D01*
X98250000Y-60500000D02*
X98250000Y-59000000D01*
%TO.C,SW3*%
X150750000Y-84000000D02*
X150750000Y-85500000D01*
X152000000Y-88000000D02*
X156500000Y-88000000D01*
X156500000Y-81500000D02*
X152000000Y-81500000D01*
X157750000Y-85500000D02*
X157750000Y-84000000D01*
%TO.C,SW10*%
X150515000Y-145542700D02*
X150515000Y-146852700D01*
X150515000Y-145542700D02*
X151898000Y-145542700D01*
X150755000Y-145782700D02*
X150755000Y-146852700D01*
X150755000Y-145782700D02*
X157575000Y-145782700D01*
X150755000Y-148932700D02*
X150755000Y-150002700D01*
X150755000Y-150002700D02*
X157575000Y-150002700D01*
X153561667Y-147257700D02*
X153561667Y-148527700D01*
X157575000Y-145782700D02*
X157575000Y-146932700D01*
X157575000Y-148852700D02*
X157575000Y-150002700D01*
X152355000Y-147257700D02*
X153561667Y-147257700D01*
X153561667Y-148527700D01*
X152355000Y-148527700D01*
X152355000Y-147257700D01*
G36*
X152355000Y-147257700D02*
G01*
X153561667Y-147257700D01*
X153561667Y-148527700D01*
X152355000Y-148527700D01*
X152355000Y-147257700D01*
G37*
X152355000Y-147257700D02*
X155975000Y-147257700D01*
X155975000Y-148527700D01*
X152355000Y-148527700D01*
X152355000Y-147257700D01*
D13*
%TO.C,U1*%
X130926000Y-113682400D02*
X132221400Y-113682400D01*
X130926000Y-121937400D02*
X130926000Y-113682400D01*
X132221400Y-107180000D02*
X132587160Y-107180000D01*
X132221400Y-113682400D02*
X132221400Y-107180000D01*
X132221400Y-121937400D02*
X130926000Y-121937400D01*
X132221400Y-128439800D02*
X132221400Y-121937400D01*
X132587160Y-128439800D02*
X132221400Y-128439800D01*
X134852840Y-107180000D02*
X135127160Y-107180000D01*
X135127160Y-128439800D02*
X134852840Y-128439800D01*
X137392840Y-107180000D02*
X137667160Y-107180000D01*
X137667160Y-128439800D02*
X137392840Y-128439800D01*
X139932840Y-107180000D02*
X140207160Y-107180000D01*
X140207160Y-128439800D02*
X139932840Y-128439800D01*
X142472840Y-107180000D02*
X142747160Y-107180000D01*
X142747160Y-128439800D02*
X142472840Y-128439800D01*
X145012840Y-107180000D02*
X145287160Y-107180000D01*
X145287160Y-128439800D02*
X145012840Y-128439800D01*
X147552840Y-107180000D02*
X147827160Y-107180000D01*
X147827160Y-128439800D02*
X147552840Y-128439800D01*
X150092840Y-107180000D02*
X150367160Y-107180000D01*
X150367160Y-128439800D02*
X150092840Y-128439800D01*
X152632840Y-107180000D02*
X152907160Y-107180000D01*
X152907160Y-128439800D02*
X152632840Y-128439800D01*
X155172840Y-107180000D02*
X155447160Y-107180000D01*
X155447160Y-128439800D02*
X155172840Y-128439800D01*
X157712840Y-107180000D02*
X157987160Y-107180000D01*
X157987160Y-128439800D02*
X157712840Y-128439800D01*
X160252840Y-107180000D02*
X160527160Y-107180000D01*
X160527160Y-128439800D02*
X160252840Y-128439800D01*
X162792840Y-107180000D02*
X163067160Y-107180000D01*
X163067160Y-128439800D02*
X162792840Y-128439800D01*
X165332840Y-107180000D02*
X165607160Y-107180000D01*
X165607160Y-128439800D02*
X165332840Y-128439800D01*
X167872840Y-107180000D02*
X168147160Y-107180000D01*
X168147160Y-128439800D02*
X167872840Y-128439800D01*
X170412840Y-107180000D02*
X170687160Y-107180000D01*
X170687160Y-128439800D02*
X170412840Y-128439800D01*
X172952840Y-107180000D02*
X173227160Y-107180000D01*
X173227160Y-128439800D02*
X172952840Y-128439800D01*
X175492840Y-107180000D02*
X175767160Y-107180000D01*
X175767160Y-128439800D02*
X175492840Y-128439800D01*
X178032840Y-107180000D02*
X178307160Y-107180000D01*
X178307160Y-128439800D02*
X178032840Y-128439800D01*
X180572840Y-107180000D02*
X180847160Y-107180000D01*
X180847160Y-128439800D02*
X180572840Y-128439800D01*
X183112840Y-107180000D02*
X183478600Y-107180000D01*
X183478600Y-107180000D02*
X183478600Y-114137060D01*
X183478600Y-116402740D02*
X183478600Y-116677060D01*
X183478600Y-118942740D02*
X183478600Y-119217060D01*
X183478600Y-121482740D02*
X183478600Y-128439800D01*
X183478600Y-128439800D02*
X183112840Y-128439800D01*
X133847000Y-132072000D02*
G75*
G02*
X133593000Y-132072000I-127000J0D01*
G01*
X133593000Y-132072000D02*
G75*
G02*
X133847000Y-132072000I127000J0D01*
G01*
D12*
%TO.C,SW5*%
X134910000Y-147880200D02*
X134910000Y-149380200D01*
X136160000Y-151880200D02*
X140660000Y-151880200D01*
X140660000Y-145380200D02*
X136160000Y-145380200D01*
X141910000Y-149380200D02*
X141910000Y-147880200D01*
%TO.C,SW2*%
X63000000Y-58250000D02*
X63000000Y-59750000D01*
X64250000Y-62250000D02*
X68750000Y-62250000D01*
X68750000Y-55750000D02*
X64250000Y-55750000D01*
X70000000Y-59750000D02*
X70000000Y-58250000D01*
%TO.C,SW4*%
X166660000Y-147130200D02*
X166660000Y-148630200D01*
X167910000Y-151130200D02*
X172410000Y-151130200D01*
X172410000Y-144630200D02*
X167910000Y-144630200D01*
X173660000Y-148630200D02*
X173660000Y-147130200D01*
%TD*%
D14*
X210000000Y-95500000D02*
X268000000Y-95500000D01*
X268000000Y-152000000D01*
X210000000Y-152000000D01*
X210000000Y-95500000D01*
X53500000Y-107000000D02*
X87000000Y-107000000D01*
X87000000Y-142000000D01*
X53500000Y-142000000D01*
X53500000Y-107000000D01*
X144500000Y-65500000D02*
X173500000Y-65500000D01*
X173500000Y-93500000D01*
X144500000Y-93500000D01*
X144500000Y-65500000D01*
X50500000Y-39000000D02*
X106000000Y-39000000D01*
X106000000Y-82500000D01*
X50500000Y-82500000D01*
X50500000Y-39000000D01*
X121500000Y-99380200D02*
X197000000Y-99380200D01*
X197000000Y-159000000D01*
X121500000Y-159000000D01*
X121500000Y-99380200D01*
M02*
