M48
; DRILL file {KiCad 9.0.1} date 2025-04-24T14:03:27-0700
; FORMAT={-:-/ absolute / metric / decimal}
; #@! TF.CreationDate,2025-04-24T14:03:27-07:00
; #@! TF.GenerationSoftware,Kicad,Pcbnew,9.0.1
; #@! TF.FileFunction,Plated,1,2,PTH
FMAT,2
METRIC
; #@! TA.AperFunction,Plated,PTH,ViaDrill
T1C0.300
; #@! TA.AperFunction,Plated,PTH,ComponentDrill
T2C0.800
; #@! TA.AperFunction,Plated,PTH,ComponentDrill
T3C1.000
; #@! TA.AperFunction,Plated,PTH,ComponentDrill
T4C1.100
%
G90
G05
T1
X186.0Y-145.5
X186.0Y-148.0
X186.0Y-150.0
T2
X150.355Y-147.893
X157.975Y-147.893
T3
X133.82Y-102.0
X133.94Y-135.0
X136.36Y-102.0
X136.48Y-135.0
X138.9Y-102.0
X139.02Y-135.0
X141.44Y-102.0
X141.56Y-135.0
X143.98Y-102.0
X144.1Y-135.0
X146.52Y-102.0
X146.64Y-135.0
X149.06Y-102.0
X149.18Y-135.0
X151.6Y-102.0
X151.72Y-135.0
X154.14Y-102.0
X154.26Y-135.0
X156.68Y-102.0
X156.8Y-135.0
X159.22Y-102.0
X159.34Y-135.0
X161.76Y-102.0
X161.88Y-135.0
X164.3Y-102.0
X164.42Y-135.0
X166.84Y-102.0
X166.96Y-135.0
X169.38Y-102.0
X169.5Y-135.0
X171.92Y-102.0
X172.04Y-135.0
X174.46Y-102.0
X174.58Y-135.0
X177.0Y-102.0
X177.12Y-135.0
X179.54Y-102.0
X179.66Y-135.0
X182.08Y-102.0
X182.2Y-135.0
X186.0Y-140.38
X186.0Y-142.92
X186.0Y-145.46
X186.0Y-148.0
X186.0Y-150.54
X186.0Y-153.08
X186.0Y-155.62
X218.0Y-29.92
X218.0Y-32.46
X218.0Y-35.0
X218.0Y-37.54
X218.0Y-40.08
T4
X63.25Y-56.75
X63.25Y-61.25
X69.75Y-56.75
X69.75Y-61.25
X77.5Y-69.5
X77.5Y-74.0
X78.25Y-47.25
X78.25Y-51.75
X84.0Y-69.5
X84.0Y-74.0
X84.75Y-47.25
X84.75Y-51.75
X91.5Y-57.5
X91.5Y-62.0
X98.0Y-57.5
X98.0Y-62.0
X135.16Y-146.38
X135.16Y-150.88
X141.66Y-146.38
X141.66Y-150.88
X151.0Y-82.5
X151.0Y-87.0
X157.5Y-82.5
X157.5Y-87.0
X164.0Y-69.5
X164.0Y-74.0
X166.91Y-145.63
X166.91Y-150.13
X170.5Y-69.5
X170.5Y-74.0
X173.41Y-145.63
X173.41Y-150.13
M30
